<?xml version="1.0" encoding="UTF-8" standalone="no"?>
<!-- Created with Inkscape (http://www.inkscape.org/) -->

<svg
   xmlns:dc="http://purl.org/dc/elements/1.1/"
   xmlns:cc="http://creativecommons.org/ns#"
   xmlns:rdf="http://www.w3.org/1999/02/22-rdf-syntax-ns#"
   xmlns:svg="http://www.w3.org/2000/svg"
   xmlns="http://www.w3.org/2000/svg"
   xmlns:xlink="http://www.w3.org/1999/xlink"
   xmlns:sodipodi="http://sodipodi.sourceforge.net/DTD/sodipodi-0.dtd"
   xmlns:inkscape="http://www.inkscape.org/namespaces/inkscape"
   width="210mm"
   height="297mm"
   viewBox="0 0 210 297"
   version="1.1"
   id="svg8"
   inkscape:version="0.92.4 (5da689c313, 2019-01-14)"
   sodipodi:docname="Logo.svg">
  <defs
     id="defs2" />
  <sodipodi:namedview
     id="base"
     pagecolor="#ffffff"
     bordercolor="#666666"
     borderopacity="1.0"
     inkscape:pageopacity="0.0"
     inkscape:pageshadow="2"
     inkscape:zoom="0.46078096"
     inkscape:cx="-503.23128"
     inkscape:cy="89.468481"
     inkscape:document-units="mm"
     inkscape:current-layer="layer2"
     showgrid="false"
     inkscape:window-width="2078"
     inkscape:window-height="1321"
     inkscape:window-x="-32000"
     inkscape:window-y="-32000"
     inkscape:window-maximized="0"
     inkscape:pagecheckerboard="false" />
  <metadata
     id="metadata5">
    <rdf:RDF>
      <cc:Work
         rdf:about="">
        <dc:format>image/svg+xml</dc:format>
        <dc:type
           rdf:resource="http://purl.org/dc/dcmitype/StillImage" />
        <dc:title></dc:title>
      </cc:Work>
    </rdf:RDF>
  </metadata>
  <g
     inkscape:label="Layer 1"
     inkscape:groupmode="layer"
     id="layer1"
     style="display:inline" />
  <g
     inkscape:groupmode="layer"
     id="layer2"
     inkscape:label="Layer 2"
     style="display:inline">
    <g
       id="g4769"
       transform="translate(-27.561903,22.394046)">
      <path
         sodipodi:nodetypes="cccccczzccscczzcscc"
         inkscape:connector-curvature="0"
         id="path905"
         d="m 166.6592,94.627665 5.16602,-3.938599 8.75354,2.314435 0.861,5.034909 -4.30502,7.30875 -4.59202,3.24832 c 0,0 0.47466,3.49207 -0.84414,5.99033 -1.31881,2.49825 -5.81717,7.87034 -6.76139,9.1144 -0.94421,1.24406 -2.39448,2.11142 -2.39448,2.11142 l -3.01351,0.82162 c 0,0 -6.20707,2.33184 -10.37707,3.07637 -4.76992,0.85165 -14.47839,0.0428 -14.47839,0.0428 l -6.2675,-10.09792 c 0,0 6.32327,-5.75716 9.98335,-7.48584 3.66008,-1.72868 8.66033,-1.04471 11.76705,-0.32483 3.10671,0.71987 7.31853,3.41074 7.31853,3.41074 0,0 1.38561,-2.5521 2.87001,-5.17824 1.7553,-3.10541 6.89684,-6.0385 6.89684,-6.0385 z"
         style="display:inline;fill:#f3e6d2;fill-opacity:1;stroke:#000000;stroke-width:1.60000002;stroke-linecap:butt;stroke-linejoin:miter;stroke-miterlimit:4;stroke-dasharray:none;stroke-opacity:1" />
      <g
         style="display:inline;stroke-width:1.60000002;stroke-miterlimit:4;stroke-dasharray:none"
         transform="translate(-0.64598211,-0.07177583)"
         id="g947">
        <path
           style="fill:#66481b;fill-opacity:1;stroke:#000000;stroke-width:1.60000002;stroke-linecap:butt;stroke-linejoin:miter;stroke-miterlimit:4;stroke-dasharray:none;stroke-opacity:1"
           d="m 176.68585,86.737197 c 0,0 -5.96266,3.709507 -7.67787,6.844191 -1.71521,3.134684 -1.76158,11.014032 -1.76158,11.014032 l 3.06945,3.02821 c 0,0 6.85584,-4.10808 8.94426,-7.03831 2.08842,-2.930229 3.34971,-9.643095 3.34971,-9.643095 z"
           id="path918"
           inkscape:connector-curvature="0"
           sodipodi:nodetypes="czcczcc" />
        <path
           style="fill:none;stroke:#000000;stroke-width:1.60000002;stroke-linecap:butt;stroke-linejoin:miter;stroke-miterlimit:4;stroke-dasharray:none;stroke-opacity:1"
           d="m 182.60982,90.942225 c 0,0 1.75421,0.529052 2.53766,0.203012 0.53197,-0.221383 0.99808,-0.7557 1.11656,-1.319583 0.19592,-0.932454 -0.81205,-2.740668 -0.81205,-2.740668 l -6.90242,-4.161758 c 0,0 -1.75985,-0.349264 -2.43615,0.101505 -0.46604,0.310629 -0.73668,0.963128 -0.71055,1.522595 0.0395,0.845087 0.71144,1.566109 1.28298,2.189869 1.63593,1.785414 5.92397,4.205028 5.92397,4.205028 z"
           id="path928"
           inkscape:connector-curvature="0"
           sodipodi:nodetypes="cssccsssc" />
        <path
           style="fill:#fff352;fill-opacity:1;stroke:#000000;stroke-width:1.60000002;stroke-linecap:butt;stroke-linejoin:miter;stroke-miterlimit:4;stroke-dasharray:none;stroke-opacity:1"
           d="m 178.54957,82.923228 c 0,0 0.0911,-5.020817 0.91355,-7.40996 0.82246,-2.389143 2.59856,-4.568635 3.95875,-6.597909 1.36019,-2.029274 4.16176,-5.582846 4.16176,-5.582846 l 0.71054,2.030126 2.74067,-0.507531 -0.30452,2.131631 1.92862,0.203012 -0.10151,1.624103 2.53766,0.203012 -0.40602,2.436151 3.04519,-0.30452 -0.50754,2.233139 2.13164,-0.203012 -0.40603,1.928619 2.33465,-0.101507 c 0,0 -3.30227,5.771903 -5.07532,7.40996 -1.77305,1.638057 -2.9732,1.945469 -4.77079,2.740668 -1.79759,0.795199 -5.98888,1.92862 -5.98888,1.92862 z"
           id="path930"
           inkscape:connector-curvature="0"
           sodipodi:nodetypes="czzccccccccccccczzcc" />
        <path
           style="fill:none;stroke:#000000;stroke-width:1.60000002;stroke-linecap:butt;stroke-linejoin:miter;stroke-miterlimit:4;stroke-dasharray:none;stroke-opacity:1"
           d="m 196.8207,76.223812 -3.04519,5.075314 -6.19188,2.537658 -0.10151,0.101505"
           id="path932"
           inkscape:connector-curvature="0" />
        <path
           style="fill:none;stroke:#000000;stroke-width:1.60000002;stroke-linecap:butt;stroke-linejoin:miter;stroke-miterlimit:4;stroke-dasharray:none;stroke-opacity:1"
           d="m 193.26798,73.483141 -3.1467,5.481341 -3.95874,2.639163 -0.20301,0.406025"
           id="path934"
           inkscape:connector-curvature="0" />
        <path
           style="fill:none;stroke:#000000;stroke-width:1.60000002;stroke-linecap:butt;stroke-linejoin:miter;stroke-miterlimit:4;stroke-dasharray:none;stroke-opacity:1"
           d="m 189.30924,71.148497 -2.43616,4.567783 -3.14669,5.278329"
           id="path936"
           inkscape:connector-curvature="0" />
        <path
           style="fill:none;stroke:#000000;stroke-width:1.60000002;stroke-linecap:butt;stroke-linejoin:miter;stroke-miterlimit:4;stroke-dasharray:none;stroke-opacity:1"
           d="m 185.65501,69.321385 -2.43615,4.669288 -1.11657,5.684353"
           id="path938"
           inkscape:connector-curvature="0" />
      </g>
      <path
         sodipodi:nodetypes="asssa"
         inkscape:connector-curvature="0"
         id="path897"
         d="m 167.2464,97.716272 c 1.08107,0.737391 3.67809,0.366888 3.81291,-0.934754 0.30189,-2.914598 -0.21062,-5.09126 -1.4362,-8.220664 -0.43581,-1.112821 -3.42149,-0.404023 -3.49754,0.788676 -0.19387,3.040469 -1.20374,6.781173 1.12083,8.366742 z"
         style="display:inline;fill:#f3e6d2;fill-opacity:1;stroke:#080202;stroke-width:1.60000002;stroke-linecap:butt;stroke-linejoin:miter;stroke-miterlimit:4;stroke-dasharray:none;stroke-opacity:1" />
      <path
         sodipodi:nodetypes="szzzzs"
         inkscape:connector-curvature="0"
         id="path901"
         d="m 171.90301,93.982182 c 0,0 -0.84158,3.260561 -0.10767,3.804118 0.73392,0.543556 6.27887,1.863134 8.14656,2.76337 1.86768,0.90023 2.16141,-0.574577 2.51215,-1.507294 0.35075,-0.932717 0.2173,-2.010937 -1.07663,-3.301688 -1.29394,-1.29075 -9.02471,-1.775381 -9.47441,-1.758506 z"
         style="display:inline;fill:#f3e6d2;fill-opacity:1;stroke:#080202;stroke-width:1.60000002;stroke-linecap:butt;stroke-linejoin:miter;stroke-miterlimit:4;stroke-dasharray:none;stroke-opacity:1" />
      <path
         sodipodi:nodetypes="zzzzzz"
         inkscape:connector-curvature="0"
         id="path903"
         d="m 170.96992,98.504056 c -1.75203,-0.191377 -1.86282,-0.0093 -1.90205,1.579064 -0.0392,1.58841 3.4245,4.33391 5.20374,4.7731 1.77924,0.43919 3.04023,-0.0778 3.80412,-1.00487 0.76389,-0.92708 1.76286,-2.17785 0.21533,-3.2658 -1.54753,-1.087955 -5.56911,-1.890117 -7.32114,-2.081494 z"
         style="display:inline;fill:#f3e6d2;fill-opacity:1;stroke:#080202;stroke-width:1.60000002;stroke-linecap:butt;stroke-linejoin:miter;stroke-miterlimit:4;stroke-dasharray:none;stroke-opacity:1" />
      <path
         sodipodi:nodetypes="zzzzzz"
         inkscape:connector-curvature="0"
         id="path899"
         d="m 171.83123,90.680497 c -0.72659,0.723155 -0.93422,2.108793 -0.10766,2.512152 0.82656,0.403359 7.72048,1.077996 8.9002,1.327851 1.17972,0.249855 1.67045,-0.630363 1.83028,-1.220188 0.15983,-0.589825 0.14286,-1.377951 -0.8972,-2.045609 -1.04006,-0.667658 -8.99903,-1.297361 -9.72562,-0.574206 z"
         style="display:inline;fill:#f3e6d2;fill-opacity:1;stroke:#080202;stroke-width:1.60000002;stroke-linecap:butt;stroke-linejoin:miter;stroke-miterlimit:4;stroke-dasharray:none;stroke-opacity:1" />
      <path
         sodipodi:nodetypes="csssssc"
         inkscape:connector-curvature="0"
         id="path954"
         d="m 198.30635,75.035467 c 0,0 -2.17842,2.905566 -2.35845,4.627446 -0.13398,1.281429 -0.11275,3.091286 1.00486,3.73234 0.94651,0.542908 2.42269,-0.05523 3.15813,-0.861309 0.55674,-0.610213 0.71793,-1.66591 0.43066,-2.440376 -0.23652,-0.637632 -1.23598,-0.704762 -1.57907,-1.291963 -0.64285,-1.100252 -0.65613,-3.766138 -0.65613,-3.766138 z"
         style="display:inline;fill:#fdfee7;fill-opacity:1;stroke:#000000;stroke-width:1.60000002;stroke-linecap:butt;stroke-linejoin:miter;stroke-miterlimit:4;stroke-dasharray:none;stroke-opacity:1" />
      <path
         sodipodi:nodetypes="czzzzzc"
         inkscape:connector-curvature="0"
         id="path956"
         d="m 197.81407,87.271147 c 0,0 -0.96149,2.26427 -1.00486,3.158133 -0.0434,0.893863 -0.14481,1.489334 0.43065,2.009722 0.57546,0.520388 1.9852,0.703417 2.58393,0.287105 0.59873,-0.416312 0.45084,-1.025912 0.43066,-1.72262 -0.0202,-0.696708 -0.28704,-1.652796 -0.71776,-2.296824 -0.43072,-0.644028 -1.72262,-1.435516 -1.72262,-1.435516 z"
         style="display:inline;fill:#fdfee7;fill-opacity:1;stroke:#000000;stroke-width:1.60000002;stroke-linecap:butt;stroke-linejoin:miter;stroke-miterlimit:4;stroke-dasharray:none;stroke-opacity:1" />
      <path
         sodipodi:nodetypes="zzzzzz"
         inkscape:connector-curvature="0"
         id="path958"
         d="m 197.81407,97.893961 c -1.04944,0.01967 -0.98022,1.978866 -1.29197,3.014579 -0.31175,1.03571 -1.30972,2.53144 -0.5742,3.15814 0.73552,0.6267 1.84091,-0.21942 2.44037,-0.86131 0.59946,-0.64189 0.79908,-1.63746 0.71776,-2.58393 -0.0813,-0.946473 -0.24252,-2.747147 -1.29196,-2.727479 z"
         style="display:inline;fill:#fdfee7;fill-opacity:1;stroke:#000000;stroke-width:1.60000002;stroke-linecap:butt;stroke-linejoin:miter;stroke-miterlimit:4;stroke-dasharray:none;stroke-opacity:1" />
      <g
         transform="translate(0,0.52915)"
         style="display:inline;stroke:#080202;stroke-width:1.5;stroke-miterlimit:4;stroke-dasharray:none;stroke-opacity:1"
         id="g895">
        <circle
           style="opacity:1;fill:#0c00bf;fill-opacity:0.98989898;stroke:#080202;stroke-width:1.5;stroke-miterlimit:4;stroke-dasharray:none;stroke-opacity:1"
           id="path815"
           cx="103.56547"
           cy="145.43155"
           r="40" />
        <path
           style="fill:#175500;fill-opacity:1;stroke:#080202;stroke-width:1.5;stroke-linecap:butt;stroke-linejoin:miter;stroke-miterlimit:4;stroke-dasharray:none;stroke-opacity:1"
           d="m 134.10404,126.66987 c -0.96725,-0.15776 -2.24859,-0.2699 -3.44023,-0.22501 -0.99834,-0.24813 -0.33262,1.38497 -1.50992,0.45002 -1.18882,-0.0644 -2.02988,-0.54135 -3.03759,-1.01253 -0.75122,-0.16239 -0.49934,-0.80086 -1.01253,-1.35004 -0.0232,-0.59719 -1.11414,-0.43659 -1.88292,-0.45002 -1.39921,-0.005 -2.87865,-0.0708 -3.96726,0.67502 -0.37832,0.732 -1.64656,0.54597 -2.36257,1.01253 -0.4269,0.58568 -0.67782,0.99422 -1.01253,1.57505 -0.15176,0.6514 -1.00538,1.12178 -1.35004,1.80005 -0.36956,0.5915 -0.48038,1.31672 -1.01253,2.02506 -0.347,0.7331 -0.63529,1.01305 -1.23754,1.57505 -0.39743,0.33177 -0.62548,1.12961 -0.78752,2.02506 -0.0872,1.09973 0.13245,1.89261 0.1125,2.92509 0.25597,1.25955 0.0434,2.71316 0.1125,4.05012 0.35161,0.55797 0.48087,1.5848 0.90003,2.02507 0.196,0.40099 0.51595,1.25295 0.90003,1.35003 0.33157,0.39289 0.60885,0.70529 1.35004,1.01254 0.91787,0.29914 1.21983,0.61452 2.02506,1.01253 1.35656,0.19659 2.71964,0.66777 4.29287,0.56251 0.85884,-0.23491 1.78923,-0.38817 2.79484,-0.56251 1.14642,-0.24328 1.60724,-0.9068 2.92509,-0.90003 1.04349,0.0733 2.02619,0.48917 2.70008,0.90003 -0.0599,0.49029 1.12417,1.57792 0.33751,2.36255 -0.23756,0.63717 -0.42534,1.9114 0,2.36259 0.76419,0.4739 0.97357,0.88558 1.46255,1.35004 0.46518,0.93247 0.60812,2.09627 1.01252,2.81258 0.3748,1.06508 -0.29045,1.72968 -0.67502,2.47508 -0.12822,0.65179 -0.52625,1.12568 -1.01252,1.57505 -0.60558,0.69688 -1.08661,1.44314 -1.01254,2.50763 -0.0776,1.08211 0.34157,1.72969 0.33751,2.68526 -0.2241,1.05055 -0.7086,2.3346 -0.78752,3.53499 -0.1449,0.68376 -0.25158,1.80109 0.33751,2.07244 0.25176,0.74124 1.19529,0.73388 1.35004,0 0.72391,-0.91351 1.85144,-1.4225 2.66354,-2.3126 0.62686,-0.60819 1.06882,-1.70211 1.49909,-1.96253 0.24953,-0.4895 0.8154,-0.72701 1.38207,-1.12544 0.50914,-0.41289 0.92319,-1.31945 1.31801,-2.02465 0.39772,-0.73473 0.83931,-1.40913 0.90002,-2.25007 0.47028,-0.7819 0.8302,-1.50175 1.01254,-2.25007 0.0618,-1.43693 0.49049,-2.73523 0.78752,-4.05012 -0.0549,-1.02455 0.23717,-2.00307 0.45001,-2.81259 0.22685,-0.7951 0.42056,-1.54347 0.79484,-2.24478 0.28117,-0.7456 0.65823,-1.25892 0.78021,-2.14285 0.24451,-1.15632 0.74602,-2.33511 0.67502,-3.71261 -0.0604,0.19802 0.49577,-1.68378 0.10523,-2.24478 -0.39913,-0.93632 -0.53155,-1.65579 -0.78025,-2.48036 -0.40219,-1.00721 -0.47227,-2.0541 -1.12503,-3.03759 -0.29455,-0.61711 -0.80442,-1.05703 -1.23754,-1.57505 -0.49405,-0.38778 -0.74285,-1.17851 -1.0245,-1.1876 -0.31886,-0.39791 -0.96376,-0.92486 -1.22557,-1.51248 -0.58606,-0.44999 -0.66645,-0.74169 -0.90003,-1.35004 -0.31638,-0.91863 -0.003,-1.14365 0.56252,-0.45001 0.43412,0.56452 0.86577,1.23171 1.57505,1.80005 0.65529,0.46259 0.45856,1.44438 1.01253,2.02506 0.42075,0.50147 0.69383,1.00198 1.12503,1.46254 0.17891,0.5052 0.57632,0.94054 0.78753,1.46255 0.21321,0.40158 0.84391,1.43176 0.67502,0.12733 -0.16186,-1.07629 -0.32338,-2.0513 -0.78753,-2.93992 -0.22986,-0.58072 -0.49287,-1.24861 -0.78752,-2.02506 -0.32916,-0.78656 -0.50553,-1.91051 -0.90003,-2.92509 -0.0622,-1.10443 -0.59211,-2.2332 -1.01253,-2.92508 -0.28977,-0.62306 -0.57605,-1.27 -0.90734,-1.68227 -0.52076,-0.87936 -1.09728,-0.95815 -1.56773,-1.58033 -0.81844,-0.46716 -0.64098,-0.84284 -1.23754,-1.46255 -0.40459,-0.69245 -0.44147,-0.91289 -0.90003,-1.23753 -0.0828,-0.5188 -0.47179,-0.90777 -0.93721,-1.58829 -0.47354,-0.32824 -1.22263,-0.86607 -1.37542,-1.12376 -0.62931,-0.5385 -1.1462,-1.06197 -1.63208,-1.62466 -0.76852,-0.43038 -1.28174,-0.88017 -2.01795,-1.28846 -0.61425,-0.42628 -1.23935,-0.97829 -1.68757,-1.68755 -0.51698,-0.39481 -0.9599,-0.64801 -1.35004,-1.12504 -0.69197,-0.32224 -1.10452,-0.72243 -1.91256,-0.90002 -0.90335,-0.33895 -1.49448,-0.62668 -2.36257,-1.12504 -0.45185,-0.38351 -1.02225,-0.65994 -1.46254,-1.01253 -0.4891,-0.54467 -1.58939,-0.67318 -2.36257,-0.90003 -1.00386,-0.14447 -1.54106,-0.53362 -2.47507,-0.90002 -1.24279,-0.59871 -1.50338,0.79622 -1.35005,1.8178 0.20168,1.27076 0.15935,2.92282 1.35005,3.69486 0.40486,0.52478 1.19597,0.41731 1.56369,1.0824 0.4506,0.18506 -0.47789,2.67287 1.23692,2.38925 0.31969,1.27446 0.0444,2.47831 -0.94433,2.71604 -0.57202,0.47809 -1.60999,0.73977 -2.53131,0.90003 -0.95687,-0.0702 -1.36348,1.29241 -0.90002,1.91255 0.42308,0.37274 0.70366,0.54167 1.01253,1.01253 0.57422,0.40906 0.59017,1.16567 1.01253,1.68756 -0.34943,0.0953 1.80353,0.93502 1.91297,0.0805 0.46607,-0.54818 0.83867,-0.76033 1.22578,-1.38787 0.29144,0.0198 0.86556,-0.72636 1.36137,-0.94266 0.38647,-0.32606 0.96332,-0.46173 1.01254,-1.12504 -0.10029,0.17587 0.29104,-0.94068 0.78752,-0.90002 0.51885,-0.42482 1.10577,0.1129 1.68756,0.56251 0.79691,0.23454 0.94129,0.69732 1.45262,1.22762 0.45601,0.39219 1.53391,1.31806 1.80998,0.34743 -0.31857,-0.75716 -1.48735,-1.05402 -1.80006,-2.13756 -0.27354,-0.49512 -1.04021,-1.21643 -0.19336,-0.8262 0.44338,0.35828 1.08977,1.46787 1.88091,2.06373 0.72192,0.50335 1.37803,0.62854 1.12504,1.77042 3.7e-4,1.1164 1.58353,0.0733 1.80005,-0.19537 0.99615,-0.55377 -0.40769,-1.5188 0,-2.13756 0.72162,-0.84524 -0.55985,-1.98642 0.1125,-2.58758 0.72821,-0.24858 1.40871,0.48821 2.13757,0.56251 0.61463,0.18218 1.40582,0.79104 0.78752,1.35005 -0.95234,0.15195 -2.30949,-0.10089 -1.91255,1.40034 0.19365,0.66129 0.54202,1.1985 1.35003,1.29974 1.08201,-0.10058 1.44529,-0.0207 1.68756,0.67502 0.35162,0.69249 0.82163,0.62287 0.90002,1.3826 8.3e-4,0.8732 -0.002,1.43053 0.001,1.51507 -0.31545,0.1524 0.21557,0.73302 -0.56363,0.47743 z"
           id="path832"
           inkscape:connector-curvature="0" />
        <path
           style="fill:#175500;fill-opacity:1;stroke:#080202;stroke-width:1.5;stroke-linecap:butt;stroke-linejoin:miter;stroke-miterlimit:4;stroke-dasharray:none;stroke-opacity:1"
           d="m 114.15699,116.49672 c 0.29457,0.096 0.51959,0.40168 0.83352,0.40626 0.0997,0.10169 0.42821,0.24943 0.41321,0.0996 0.17169,-0.16025 0.14442,-0.43879 0.18843,-0.64469 0.0415,-0.23927 0.33966,-0.29035 0.46444,-0.46912 -0.0204,-0.13709 0.27186,-0.11257 0.14457,-0.24695 0.27943,-0.0839 0.2934,-0.41301 0.2611,-0.65695 0.028,-0.23682 -0.15264,-0.42195 -0.28452,-0.60972 -0.23286,-0.11127 -0.47548,-0.13713 -0.74615,-0.1014 -0.176,0.024 -0.33678,-0.007 -0.38248,-0.18631 -0.10185,0.12219 -0.17442,-0.28041 -0.34073,-0.3309 -0.0199,-0.0873 -0.20534,0.004 -0.17413,-0.13331 -0.28831,0.0954 -0.36692,-0.2718 -0.53507,-0.42128 -0.12374,-0.17634 -0.16651,-0.38669 -0.35669,-0.51242 -0.0704,-0.0834 -0.12782,-0.31445 -0.23051,-0.23973 -0.0598,-0.22202 -0.30325,-0.29353 -0.45109,-0.36689 -0.20147,-0.18532 -0.42331,0.12622 -0.47755,0.30325 -7.4e-4,0.25626 -0.008,0.51322 0.0642,0.7616 0.0821,0.27481 -0.0503,0.57071 0.0517,0.83878 0.17983,0.12836 0.46007,-0.0417 0.662,0.0865 0.23731,0.15421 0.50476,0.23769 0.65747,0.49351 0.0916,-0.005 0.10345,0.12726 0.003,0.0707 -0.0514,-0.13373 0.30419,-0.0249 0.13649,0.0745 0.23257,0.10325 0.47494,0.15263 0.68889,0.28288 0.17218,0.0787 0.36134,0.17827 0.28754,0.41753 0.022,0.28836 -0.0529,0.60667 -0.25141,0.82164 -0.0863,0.0778 -0.17256,0.10691 -0.18372,0.19757 l -0.0454,-0.0142"
           id="path839"
           inkscape:connector-curvature="0" />
        <path
           style="fill:#175500;fill-opacity:1;stroke:#080202;stroke-width:1.5;stroke-linecap:butt;stroke-linejoin:miter;stroke-miterlimit:4;stroke-dasharray:none;stroke-opacity:1"
           d="m 106.52001,111.24629 c 0.20599,-0.0119 0.44522,0.052 0.61721,-0.097 0.17064,-0.10025 0.19669,-0.32937 0.36321,-0.43224 0.0944,-0.0512 0.20579,-0.0162 0.30829,-0.0256 0.2546,2.8e-4 0.50924,-0.004 0.76381,0.002 0.12646,-0.0641 0.26782,-0.17247 0.27248,-0.32661 -0.008,-0.13859 -0.16208,-0.16913 -0.27249,-0.18737 -0.14774,-0.0234 -0.31821,-0.0601 -0.39586,-0.20359 -0.13033,-0.17184 -0.29352,-0.32411 -0.37252,-0.52935 -0.078,-0.1389 -0.27282,-0.12615 -0.38482,-0.0387 -0.0985,0.10021 -0.2341,0.14944 -0.32956,0.25593 -0.10323,0.10152 -0.21487,0.20663 -0.36005,0.2414 -0.0627,0.11999 -0.2033,0.15874 -0.26835,0.26204 -0.11108,0.2188 -0.15265,0.46319 -0.23575,0.69243 0.0661,0.15187 0.22803,0.23535 0.2944,0.38664 z"
           id="path841"
           inkscape:connector-curvature="0" />
        <path
           style="fill:#175500;fill-opacity:1;stroke:#080202;stroke-width:1.5;stroke-linecap:butt;stroke-linejoin:miter;stroke-miterlimit:4;stroke-dasharray:none;stroke-opacity:1"
           d="m 87.745754,117.69 c -0.799892,-1.09132 0.872213,-0.97033 1.591026,-1.11361 0.709453,-0.13231 1.035476,-0.71176 1.750126,-0.7954 0.775308,0.0178 1.000813,-0.58745 0.875061,-1.43167 -0.287986,-0.40855 -0.531791,-0.73356 -0.71595,-1.35237 -0.276189,-0.68731 -0.61839,-0.94059 -1.352359,-1.193 -0.530407,-0.70464 -1.545876,-0.77789 -2.306992,-0.3976 -0.233587,0.21213 -0.541795,0.71207 -0.724479,0.99864 -0.382601,0.40289 -1.76466,0.16222 -1.980256,-0.36244 0.581513,-0.12493 1.130427,-0.54778 1.511476,-0.7954 0.209459,-0.57579 0.400502,-1.00089 1.034154,-1.35203 0.611929,-0.19979 1.275207,-0.22315 1.19327,-1.03406 -0.256397,-0.42242 -1.030216,0.096 -1.343838,0.433 -0.270088,0.32843 -1.042133,0.72045 -1.599548,0.76012 -0.975351,-0.12747 -1.80857,0.32125 -2.386545,0.71568 -0.256064,0.37494 -0.787433,0.64932 -0.954615,0.95445 -0.369639,0.25435 -0.529758,0.48908 -0.954614,0.95446 -0.375974,0.29466 -0.636798,0.63055 -1.193255,0.8748 -0.448038,0.35026 -0.882063,0.56133 -1.352352,0.8749 -0.344379,0.24546 -0.503993,0.56438 -1.113707,0.71581 -0.401623,0.2918 -0.882732,0.57063 -1.113704,0.9545 -0.412556,0.41604 -0.599225,0.80496 -1.034156,1.27277 -0.341233,0.21835 -0.670743,0.67548 -0.954604,1.193 -0.342449,0.28608 -0.564494,0.62604 -0.87505,1.0338 -0.244576,0.42133 -0.507216,0.7101 -0.715953,0.95448 -0.308467,0.33401 -0.614309,0.78266 -0.954609,1.11344 -0.275828,0.63438 -0.791115,1.23871 -1.352367,1.59087 -0.226268,0.32046 -0.683961,0.5409 -0.976982,0.92706 -0.264737,0.47959 -0.53886,0.92434 -0.693578,1.61815 -0.366326,0.60353 -0.628875,1.18424 -0.795504,1.90918 -0.201542,0.70376 -0.344491,1.4469 -0.71595,1.90919 -0.344491,0.98969 -0.703195,1.7126 -0.7955,2.78454 -0.285669,1.05041 -0.163556,2.48577 0.07955,3.50032 0.201703,0.353 0.509611,0.59813 0.715954,0.87511 0.389196,0.48374 0.737778,1.01087 1.511476,0.9548 0.324248,0.47128 0.103921,1.44734 0.07955,2.06844 -0.367809,0.71525 -0.244946,2.00723 0.23865,2.46634 0.124714,-0.13417 1.045803,0.19604 1.591032,0.47741 1.032473,-0.31013 1.853522,0.31706 1.193283,0.95462 -0.218299,0.58618 -0.506697,1.24892 -0.795504,1.98908 -0.600785,0.78556 -0.779623,1.70398 -0.875059,2.62535 -0.514294,1.41752 -0.420507,3.0307 -0.4773,4.61415 0.213358,0.99431 -0.006,2.19936 0.875052,2.5457 0.523103,0.2476 0.631876,0.61827 1.034152,0.9549 0.151197,0.83271 0.305928,1.51131 0.795505,2.2276 0.255763,0.31285 0.521374,0.94336 0.7955,1.19333 0.309899,0.39545 0.665087,0.74763 0.954611,0.95475 0.237207,0.24375 0.808232,0.6142 1.034158,0.95481 0.415192,0.27586 0.848666,0.92066 1.193271,1.19326 0.366364,0.42283 0.58379,1.07024 0.477305,1.90329 0.03365,1.22417 -0.185414,2.4933 0.4773,3.34741 0.286951,0.68937 0.68894,1.23349 0.875057,1.98906 0.315224,0.31117 0.444517,1.27452 0.875057,1.43203 0.161761,0.64639 0.59591,1.36066 0.71595,2.06858 0.189213,0.64431 0.556916,0.80977 0.875059,1.43216 0.274463,0.66094 -0.0028,1.67133 1.11372,1.59122 0.626475,0.23274 0.861041,0.43249 1.034154,1.1139 0.112341,0.54094 0.393727,1.27577 0.7955,1.51167 0.861644,0.77052 0.824059,-0.39807 0.875056,-1.27283 0.202536,-0.70554 0.279806,-1.70039 0.71595,-2.14807 0.559177,-0.57411 1.290503,-0.36347 1.670571,-1.19345 0.131768,-0.62626 0.485443,-1.21238 0.954606,-1.67067 0.165221,-0.34977 0.637299,-0.56725 0.875055,-0.8751 0.425083,-0.46277 1.159092,-1.04039 1.034162,-1.82978 0.169996,-0.82828 0.01139,-1.93404 0.4773,-2.38661 0.252752,-0.40617 0.97193,-0.64375 1.670572,-0.557 0.69206,-0.33691 1.598996,-0.20952 1.829679,-0.8751 0.534521,-0.79214 0.652987,-1.69661 1.03415,-2.46643 0.174982,-0.98929 0.657452,-1.66721 0.71595,-2.7048 0.111179,-0.7608 0.418198,-0.9918 0.7955,-1.43212 0.34522,-0.52133 0.785037,-1.09216 0.954607,-1.67073 0.424858,-0.5257 0.600105,-1.36472 0.55685,-2.3072 -0.343216,-0.74113 -0.342606,-1.14327 -1.431918,-0.63645 -0.787745,-0.62599 -1.036305,-1.43337 -1.988788,-1.98884 -0.645962,-0.66356 -2.141642,-0.19794 -2.86386,-0.5569 -0.426809,-0.3045 -1.192319,-0.5408 -1.591026,-0.7161 -0.717803,-0.33047 -1.352422,-0.4384 -1.750125,-0.9549 -0.29078,-0.73943 -0.812516,-1.26811 -1.431925,-1.67066 -0.456268,-0.77608 -1.262074,-0.90903 -1.750473,-1.53422 -0.263365,-0.0757 -0.858959,-0.67523 -1.033811,-0.93199 -0.657107,-0.30013 -1.327987,-0.5934 -1.750126,-0.79571 -0.702788,-0.18793 -1.071351,-0.29195 -1.511478,-0.9549 -0.252424,-0.44869 -0.455997,-0.92005 -0.786975,-1.22861 -0.265119,-0.22592 -0.92615,-0.51675 -1.281331,-0.8399 -0.400466,-0.35341 -1.064195,-0.45537 -1.272808,-0.87531 -0.350894,-0.27259 -0.658499,-0.67263 -1.431917,-0.7162 -0.814644,-0.28005 -1.460097,-0.58972 -2.386535,-0.7161 -0.332504,-0.0689 -0.650381,0.83708 -1.431916,0.6366 -0.623832,0.42323 -1.063365,-0.432 -1.90923,-0.3182 -0.161674,-0.65896 -0.358099,-1.64643 -0.23865,-2.38665 0.284062,-0.52473 0.680623,-1.60003 0.3182,-2.22755 -0.640097,0.0226 -1.619446,0.009 -1.352368,-0.87501 0.121416,-0.6213 0.675798,-0.76591 0.795504,-1.35251 0.101489,-0.29132 0.547687,-1.51094 0,-1.67063 -0.363249,0.52751 -0.477672,1.31642 -1.034161,1.4321 -1.269821,0.74356 -1.092599,-1.24116 -0.954615,-1.98875 0.238535,-0.63386 0.599812,-1.04567 0.954953,-1.53424 0.29454,-0.0919 0.68396,-0.62238 0.795151,-1.09119 0.44584,-0.66486 0.466268,-1.37381 0.7955,-1.98887 0.07026,-0.43365 1.036127,-1.08723 1.352366,-0.31806 0.619731,0.31767 1.561781,-0.49029 1.909231,0.15906 0.365693,0.6552 -0.49162,1.10384 -0.636409,1.59131 -0.757309,0.90369 0.63986,1.47857 0.875416,0.53416 0.236981,-0.0448 0.460447,-0.64431 0.715601,-0.8525 0.381569,-0.0841 0.197615,-1.71757 0.23865,-1.59104 -0.01273,-0.71176 0.344553,-0.87717 0.795505,-1.19326 0.51708,-0.2087 1.047994,-0.49864 1.272808,-0.8748 0.400653,-0.36826 0.555145,-0.89952 0.954606,-1.11371 0.445327,-0.39033 0.838038,-0.44411 1.034162,-0.9544 0.251683,-0.44812 0.408666,-0.7242 0.875058,-0.95451 0.48856,-0.16963 0.799211,-0.49 1.272822,-0.6363 0.407997,-0.40222 0.91508,-0.527 1.431916,-0.7953 0.08458,-0.40214 0.508533,-0.66648 0.715955,-0.95451 0.663571,-0.12629 1.010782,-0.66366 1.591028,-0.87486 -0.02134,0.37141 0.539273,0.72265 1.193265,0.95446 0.863785,-10e-4 1.266009,-0.4763 1.988787,-0.7157 0.876025,-0.56728 -0.15834,-0.48917 -0.397676,-1.19301 z"
           id="path843"
           inkscape:connector-curvature="0" />
        <path
           style="fill:#175500;fill-opacity:1;stroke:#080202;stroke-width:1.5;stroke-linecap:butt;stroke-linejoin:miter;stroke-miterlimit:4;stroke-dasharray:none;stroke-opacity:1"
           d="m 112.40684,115.93985 c 0.21214,-0.001 0.42428,0.002 0.63642,0 -0.0504,-0.0725 0.0969,-0.16882 0.0852,-0.049 0.0725,-0.0316 0.0785,-0.14621 0.078,-0.2203 -0.007,-0.19199 -0.003,-0.38402 -0.004,-0.57598 -0.0196,-0.0408 0.006,-0.15348 0.008,-0.0507 -0.0184,-0.0434 -0.004,-0.1841 -0.005,-0.26272 -0.01,-0.0926 0.0293,-0.2145 -0.0237,-0.28781 -0.0693,-0.0511 -0.041,-0.18551 -0.15483,-0.14217 -0.0739,0.0178 -0.0627,-0.0698 -0.0812,-0.0858 -0.0896,-0.0249 -0.24729,0.0579 -0.29355,-0.0289 -0.002,-0.11878 -0.19657,0.0337 -0.16951,-0.11172 -0.0401,-0.0188 -0.10236,-0.0189 -0.0769,-0.0928 0.0324,-0.0691 -0.0218,-0.0963 -0.0764,-0.091 0.009,-0.11947 -0.16908,-0.086 -0.23775,-0.0526 -0.0134,0.0829 0.007,0.17399 10e-4,0.26068 -0.005,0.0855 0.0119,0.17319 -0.004,0.25699 -0.053,0.0777 -0.10683,0.15679 -0.0858,0.25264 -0.0675,0.0793 -0.0986,0.16752 -0.0714,0.26993 -0.0186,0.0874 0.0242,0.22484 -0.009,0.28022 0.006,-0.11915 0.0148,0.0578 0.003,0.0952 -0.02,0.0782 0.0467,-0.0963 0.0774,0.006 0.002,0.0452 0.05,0.16553 0.0866,0.0829 0.0231,-0.0688 -0.10407,-0.17197 -0.0739,-0.0507 0.009,0.0857 0.0966,0.1258 0.15768,0.1393 0.0169,0.0875 -0.069,0.24008 0.0785,0.23725 0.0751,0.0551 0.0924,0.15573 0.15548,0.22065 z"
           id="path837"
           inkscape:connector-curvature="0" />
      </g>
      <text
         transform="rotate(-4.5045382,124.24961,131.20931)"
         x="0.52916664"
         id="text864"
         style="font-style:normal;font-variant:normal;font-weight:normal;font-stretch:normal;font-size:22.93055534px;line-height:1.25;font-family:Stencil;-inkscape-font-specification:'Stencil, Normal';font-variant-ligatures:normal;font-variant-caps:normal;font-variant-numeric:normal;font-feature-settings:normal;text-align:start;letter-spacing:0px;word-spacing:0px;writing-mode:lr-tb;text-anchor:start;fill:#ffffff;fill-opacity:1;stroke:none;stroke-width:0.96499997;stroke-miterlimit:4;stroke-dasharray:none;stroke-opacity:1"
         xml:space="preserve"><textPath
           id="textPath4718"
           xlink:href="#path872">  GlUE</textPath></text>
      <path
         sodipodi:nodetypes="csc"
         inkscape:connector-curvature="0"
         id="path872"
         d="m 74.665621,148.58579 c 0,0 6.531183,-21.44103 27.636859,-21.74927 24.79112,-0.36207 29.10148,26.9133 29.10148,26.9133"
         style="fill:none;fill-opacity:1;stroke:none;stroke-width:0.26458332px;stroke-linecap:butt;stroke-linejoin:miter;stroke-opacity:1" />
    </g>
  </g>
</svg>
